<svg width="192" height="34" viewBox="0 0 192 34" fill="none" xmlns="http://www.w3.org/2000/svg">
<path d="M0 23.5673H4.19547V5.89183H0V23.5673Z" fill="white"/>
<path d="M6.87791 23.5673H11.0734V12.8193C11.0734 10.6444 12.5337 9.17146 14.3417 9.17146C16.1149 9.17146 17.3318 10.3567 17.3318 12.1749V23.5673H21.4462V12.5432C21.4462 10.5524 22.6399 9.17146 24.6681 9.17146C26.3602 9.17146 27.7046 10.1611 27.7046 12.3475V23.5673H31.9117V11.7031C31.9117 7.75604 29.6169 5.66168 26.3486 5.66168C23.7641 5.66168 21.7939 6.9275 21.0058 8.89528H20.8203C20.1365 6.89298 18.4097 5.66168 16.0106 5.66168C13.6231 5.66168 11.8383 6.88147 11.0966 8.89528H10.8879V5.89183H6.87791V23.5673Z" fill="white"/>
<path d="M84.7659 16.1335C84.7659 18.8262 82.8304 20.1611 80.9761 20.1611C78.9595 20.1611 77.6151 18.7457 77.6151 16.5017V5.89183H73.4196V17.1462C73.4196 21.3924 75.8534 23.7975 79.3535 23.7975C82.0192 23.7975 83.8967 22.4051 84.708 20.4258H84.8934V23.5673H88.9614V5.89183H84.7659V16.1335Z" fill="white"/>
<path d="M95.8393 0H91.6438V23.5673H95.8393V0Z" fill="white"/>
<path d="M112.592 10.5639C112.012 7.57192 109.602 5.66168 105.429 5.66168C101.141 5.66168 98.2204 7.75604 98.232 11.0242C98.2204 13.6018 99.8198 15.305 103.239 16.0069L106.275 16.6398C107.909 16.9966 108.674 17.6525 108.674 18.6536C108.674 19.8619 107.353 20.771 105.36 20.771C103.436 20.771 102.184 19.9425 101.825 18.3544L97.7336 18.7457C98.2552 21.9908 101.002 23.9125 105.371 23.9125C109.822 23.9125 112.963 21.6226 112.974 18.2739C112.963 15.7537 111.328 14.2117 107.967 13.4868L104.931 12.8424C103.123 12.4396 102.404 11.8182 102.416 10.794C102.404 9.59724 103.737 8.7687 105.487 8.7687C107.423 8.7687 108.443 9.81588 108.767 10.9781L112.592 10.5639Z" fill="white"/>
<path fill-rule="evenodd" clip-rule="evenodd" d="M123.633 20.2537C126.61 20.2537 129.024 17.8573 129.024 14.901C129.024 11.9448 126.61 9.54833 123.633 9.54833C120.656 9.54833 118.242 11.9448 118.242 14.901C118.242 17.8573 120.656 20.2537 123.633 20.2537ZM123.633 24.0771C128.737 24.0771 132.875 19.9688 132.875 14.901C132.875 9.83324 128.737 5.72497 123.633 5.72497C118.529 5.72497 114.392 9.83324 114.392 14.901C114.392 19.9688 118.529 24.0771 123.633 24.0771Z" fill="white"/>
<path d="M38.2903 5.83613H34.4866V29.4344H38.2903V5.83613Z" fill="white"/>
<path d="M67.4022 14.9709C67.4022 17.9139 65.018 20.2996 62.077 20.2996V24.1058C67.1187 24.1058 71.2058 20.016 71.2058 14.9709C71.2058 9.92593 67.1187 5.83613 62.077 5.83613V9.6423C65.018 9.6423 67.4022 12.028 67.4022 14.9709Z" fill="white"/>
<path d="M58.2734 14.9709C58.2734 17.9139 55.8892 20.2996 52.9482 20.2996V24.1058C57.9899 24.1058 62.077 20.016 62.077 14.9709C62.077 9.92593 57.9899 5.83613 52.9482 5.83613V9.6423C55.8892 9.6423 58.2734 12.028 58.2734 14.9709Z" fill="white"/>
<path d="M48.9405 14.9709C48.9405 17.9139 46.5564 20.2996 43.6154 20.2996V24.1058C48.6571 24.1058 52.7442 20.016 52.7442 14.9709C52.7442 9.92593 48.6571 5.83613 43.6154 5.83613V9.6423C46.5564 9.6423 48.9405 12.028 48.9405 14.9709Z" fill="white"/>
<path d="M38.2903 14.9709C38.2903 17.9139 40.6744 20.2996 43.6154 20.2996V24.1058C38.5737 24.1058 34.4866 20.016 34.4866 14.9709C34.4866 9.92593 38.5737 5.83613 43.6154 5.83613V9.6423C40.6744 9.6423 38.2903 12.028 38.2903 14.9709Z" fill="white"/>
<path fill-rule="evenodd" clip-rule="evenodd" d="M164.377 20.8584C167.295 20.8584 169.66 18.4624 169.66 15.5068C169.66 12.5513 167.295 10.1553 164.377 10.1553C161.459 10.1553 159.093 12.5513 159.093 15.5068C159.093 18.4624 161.459 20.8584 164.377 20.8584ZM164.377 24.6809C169.379 24.6809 173.434 20.5735 173.434 15.5068C173.434 10.4402 169.379 6.33285 164.377 6.33285C159.374 6.33285 155.319 10.4402 155.319 15.5068C155.319 20.5735 159.374 24.6809 164.377 24.6809Z" fill="#2EA6BC"/>
<path d="M149.229 6.33285H153.003V24.6808H149.229V6.33285Z" fill="#2EA6BC"/>
<path fill-rule="evenodd" clip-rule="evenodd" d="M143.945 20.8584C146.863 20.8584 149.229 18.4624 149.229 15.5068C149.229 12.5513 146.863 10.1553 143.945 10.1553C141.027 10.1553 138.662 12.5513 138.662 15.5068C138.662 18.4624 141.027 20.8584 143.945 20.8584ZM143.945 24.6809C148.947 24.6809 153.003 20.5735 153.003 15.5068C153.003 10.4402 148.947 6.33285 143.945 6.33285C138.943 6.33285 134.888 10.4402 134.888 15.5068C134.888 20.5735 138.943 24.6809 143.945 24.6809Z" fill="#2EA6BC"/>
<path d="M138.668 24.6809C138.799 27.5181 141.112 29.7775 143.945 29.7775C146.779 29.7775 149.092 27.5181 149.223 24.6809H152.999C152.866 29.6297 148.863 33.6 143.945 33.6C139.027 33.6 135.025 29.6297 134.891 24.6809H138.668Z" fill="#2EA6BC"/>
<path d="M188.022 6.09574H191.8L184.479 24.59H180.701L188.022 6.09574Z" fill="#2EA6BC"/>
<path d="M173.38 6.09574H177.159L184.479 24.59H180.701L173.38 6.09574Z" fill="#2EA6BC"/>
</svg>
