<svg width="159" height="32" viewBox="0 0 159 32" fill="none" xmlns="http://www.w3.org/2000/svg">
<path d="M19.4634 26.7069C22.0442 26.7069 24.5193 25.6817 26.3442 23.8567C28.1691 22.0318 29.1944 19.5567 29.1944 16.9759C29.1944 14.395 28.1691 11.9199 26.3442 10.095C24.5193 8.27008 22.0442 7.24482 19.4634 7.24482V12.0507C20.7696 12.0507 22.0223 12.5696 22.946 13.4933C23.8697 14.4169 24.3886 15.6696 24.3886 16.9759C24.3886 18.2821 23.8697 19.5348 22.946 20.4584C22.0223 21.3821 20.7696 21.901 19.4634 21.901V26.7069Z" fill="#2EB380"/>
<path d="M29.1961 26.7069C31.7769 26.7069 34.252 25.6817 36.0769 23.8567C37.9019 22.0318 38.9271 19.5567 38.9271 16.9759C38.9271 14.395 37.9019 11.9199 36.0769 10.095C34.252 8.27008 31.7769 7.24482 29.1961 7.24482V12.0507C30.5024 12.0507 31.7551 12.5696 32.6787 13.4933C33.6024 14.4169 34.1213 15.6696 34.1213 16.9759C34.1213 18.2821 33.6024 19.5348 32.6787 20.4584C31.7551 21.3821 30.5024 21.901 29.1961 21.901V26.7069Z" fill="#2EB380"/>
<path d="M9.731 7.24482C7.80639 7.24482 5.92498 7.81552 4.32473 8.88477C2.72447 9.95403 1.47724 11.4738 0.740721 13.2519C0.00420439 15.03 -0.188486 16.9867 0.186987 18.8743C0.56246 20.762 1.48922 22.4958 2.85012 23.8567C4.21103 25.2176 5.94495 26.1445 7.83258 26.52C9.7202 26.8954 11.6768 26.7027 13.4549 25.9662C15.233 25.2297 16.7528 23.9824 17.822 22.3822C18.8913 20.7819 19.462 18.9005 19.462 16.9759C19.462 14.395 18.4368 11.9199 16.6119 10.095C14.787 8.27007 12.3118 7.24482 9.731 7.24482ZM9.731 21.901C8.75688 21.901 7.80465 21.6123 6.99471 21.0711C6.18476 20.5299 5.55348 19.7607 5.18071 18.8607C4.80793 17.9608 4.71038 16.9704 4.90042 16.015C5.09046 15.0596 5.55952 14.1821 6.24833 13.4933C6.93713 12.8045 7.81475 12.3353 8.77015 12.1452C9.72554 11.9552 10.7158 12.0527 11.6158 12.4255C12.5158 12.7983 13.285 13.4295 13.8262 14.2395C14.3673 15.0494 14.6562 16.0018 14.6562 16.9759C14.6562 18.2821 14.1373 19.5348 13.2137 20.4584C12.29 21.3821 11.0372 21.901 9.731 21.901Z" fill="#2EB380"/>
<path d="M55.4359 32V23.5152C56.3079 24.7965 58.1566 25.8355 60.5983 25.8355C65.4818 25.8355 68.5862 22.026 68.5862 16.9697C68.5862 11.9827 65.7608 8.17316 60.7379 8.17316C58.1218 8.17316 56.1684 9.38528 55.3312 10.8398V8.55411H51.4245V32H55.4359ZM64.54 16.9697C64.54 20.1905 62.6564 22.2684 59.9705 22.2684C57.3195 22.2684 55.401 20.1905 55.401 16.9697C55.401 13.8182 57.3195 11.7403 59.9705 11.7403C62.6912 11.7403 64.54 13.8182 64.54 16.9697Z" fill="#1F1F1F"/>
<path d="M81.022 8.45022C80.8476 8.41558 80.429 8.34632 79.9407 8.34632C77.7083 8.34632 75.8247 9.41991 75.0224 11.2554V8.55411H71.0808V25.4199H75.127V17.3853C75.127 14.2338 76.5572 12.4329 79.6965 12.4329C80.1151 12.4329 80.5686 12.4675 81.022 12.5368V8.45022Z" fill="#1F1F1F"/>
<path d="M85.6596 15.1342C85.7992 13.3333 87.2642 11.3939 89.8105 11.3939C92.6011 11.3939 93.9266 13.1602 93.9963 15.1342H85.6596ZM94.4498 19.5325C93.8917 21.1948 92.6359 22.4762 90.1942 22.4762C87.6828 22.4762 85.6596 20.6407 85.555 18.0779H97.9728C98.0077 18.0087 98.0775 17.4545 98.0775 16.7965C98.0775 11.4632 95.0079 8.03463 89.7757 8.03463C85.4852 8.03463 81.5087 11.5671 81.5087 16.9004C81.5087 22.6147 85.5899 25.9394 90.1942 25.9394C94.2754 25.9394 96.9612 23.5498 97.8682 20.6061L94.4498 19.5325Z" fill="#1F1F1F"/>
<path d="M115.556 8.55411H111.301L106.905 20.6061L102.406 8.55411H97.9409L104.847 25.4199H108.894L115.556 8.55411Z" fill="#1F1F1F"/>
<path d="M121.151 25.4199V8.55411H117.139V25.4199H121.151ZM116.512 2.63203C116.512 4.08658 117.697 5.22944 119.128 5.22944C120.593 5.22944 121.779 4.08658 121.779 2.63203C121.779 1.17749 120.593 0 119.128 0C117.697 0 116.512 1.17749 116.512 2.63203Z" fill="#1F1F1F"/>
<path d="M129.022 15.6883C129.022 13.4719 130.243 11.7056 132.545 11.7056C135.091 11.7056 136.033 13.368 136.033 15.4459V25.4199H140.079V14.7532C140.079 11.0476 138.091 8.06926 133.94 8.06926C132.056 8.06926 130.033 8.8658 128.917 10.8052V8.55411H124.975V25.4199H129.022V15.6883Z" fill="#1F1F1F"/>
<path d="M146.435 15.1342C146.575 13.3333 148.04 11.3939 150.586 11.3939C153.377 11.3939 154.702 13.1602 154.772 15.1342H146.435ZM155.225 19.5325C154.667 21.1948 153.412 22.4762 150.97 22.4762C148.458 22.4762 146.435 20.6407 146.331 18.0779H158.748C158.783 18.0087 158.853 17.4545 158.853 16.7965C158.853 11.4632 155.783 8.03463 150.551 8.03463C146.261 8.03463 142.284 11.5671 142.284 16.9004C142.284 22.6147 146.365 25.9394 150.97 25.9394C155.051 25.9394 157.737 23.5498 158.644 20.6061L155.225 19.5325Z" fill="#1F1F1F"/>
</svg>
