<svg width="103" height="18" viewBox="0 0 103 18" fill="none" xmlns="http://www.w3.org/2000/svg">
<path d="M0 12.6254H2.24758V3.15634H0V12.6254Z" fill="white"/>
<path d="M3.6846 12.6254H5.93217V6.8675C5.93217 5.70237 6.71448 4.91328 7.68304 4.91328C8.63299 4.91328 9.28491 5.54825 9.28491 6.52228V12.6254H11.489V6.71955C11.489 5.65305 12.1285 4.91328 13.2151 4.91328C14.1215 4.91328 14.8418 5.44345 14.8418 6.61475V12.6254H17.0955V6.26952C17.0955 4.15502 15.8662 3.03304 14.1153 3.03304C12.7308 3.03304 11.6753 3.71116 11.2531 4.76533H11.1537C10.7874 3.69267 9.86232 3.03304 8.57711 3.03304C7.2981 3.03304 6.34195 3.6865 5.94459 4.76533H5.83283V3.15634H3.6846V12.6254Z" fill="white"/>
<path d="M45.4103 8.64294C45.4103 10.0855 44.3735 10.8006 43.38 10.8006C42.2997 10.8006 41.5795 10.0423 41.5795 8.84021V3.15634H39.3319V9.18544C39.3319 11.4602 40.6358 12.7486 42.5108 12.7486C43.9388 12.7486 44.9447 12.0027 45.3793 10.9424H45.4786V12.6254H47.6579V3.15634H45.4103V8.64294Z" fill="white"/>
<path d="M51.3425 0H49.0949V12.6254H51.3425V0Z" fill="white"/>
<path d="M60.317 5.65922C60.0065 4.05639 58.7151 3.03304 56.4799 3.03304C54.1827 3.03304 52.6181 4.15502 52.6243 5.90581C52.6181 7.2867 53.4749 8.19908 55.3065 8.57513L56.9332 8.91419C57.8086 9.1053 58.2184 9.45669 58.2184 9.99302C58.2184 10.6403 57.5106 11.1273 56.4427 11.1273C55.412 11.1273 54.7415 10.6835 54.549 9.83273L52.3573 10.0423C52.6367 11.7808 54.1082 12.8103 56.4489 12.8103C58.8331 12.8103 60.5156 11.5835 60.5218 9.78958C60.5156 8.43951 59.6402 7.61343 57.8397 7.22506L56.213 6.87983C55.2444 6.66407 54.8594 6.33117 54.8657 5.78251C54.8594 5.14138 55.5735 4.69752 56.511 4.69752C57.5478 4.69752 58.0942 5.25851 58.2681 5.88115L60.317 5.65922Z" fill="white"/>
<path fill-rule="evenodd" clip-rule="evenodd" d="M66.2321 10.8502C67.8271 10.8502 69.1201 9.56639 69.1201 7.9827C69.1201 6.39901 67.8271 5.11518 66.2321 5.11518C64.6371 5.11518 63.344 6.39901 63.344 7.9827C63.344 9.56639 64.6371 10.8502 66.2321 10.8502ZM66.2321 12.8984C68.9663 12.8984 71.1829 10.6976 71.1829 7.9827C71.1829 5.26781 68.9663 3.06695 66.2321 3.06695C63.4978 3.06695 61.2812 5.26781 61.2812 7.9827C61.2812 10.6976 63.4978 12.8984 66.2321 12.8984Z" fill="white"/>
<path d="M20.5126 3.1265H18.475V15.7684H20.5126V3.1265Z" fill="white"/>
<path d="M36.1083 8.02015C36.1083 9.59672 34.8311 10.8748 33.2556 10.8748V12.9138C35.9565 12.9138 38.146 10.7228 38.146 8.02015C38.146 5.31746 35.9565 3.1265 33.2556 3.1265V5.16552C34.8311 5.16552 36.1083 6.44358 36.1083 8.02015Z" fill="white"/>
<path d="M31.2179 8.02015C31.2179 9.59672 29.9407 10.8748 28.3651 10.8748V12.9138C31.066 12.9138 33.2556 10.7228 33.2556 8.02015C33.2556 5.31746 31.066 3.1265 28.3651 3.1265V5.16552C29.9407 5.16552 31.2179 6.44358 31.2179 8.02015Z" fill="white"/>
<path d="M26.2181 8.02015C26.2181 9.59672 24.9409 10.8748 23.3654 10.8748V12.9138C26.0663 12.9138 28.2558 10.7228 28.2558 8.02015C28.2558 5.31746 26.0663 3.1265 23.3654 3.1265V5.16552C24.9409 5.16552 26.2181 6.44358 26.2181 8.02015Z" fill="white"/>
<path d="M20.5126 8.02015C20.5126 9.59672 21.7899 10.8748 23.3654 10.8748V12.9138C20.6645 12.9138 18.475 10.7228 18.475 8.02015C18.475 5.31746 20.6645 3.1265 23.3654 3.1265V5.16552C21.7899 5.16552 20.5126 6.44358 20.5126 8.02015Z" fill="white"/>
<path fill-rule="evenodd" clip-rule="evenodd" d="M88.0592 11.1741C89.6223 11.1741 90.8895 9.89058 90.8895 8.30725C90.8895 6.72391 89.6223 5.44037 88.0592 5.44037C86.496 5.44037 85.2288 6.72391 85.2288 8.30725C85.2288 9.89058 86.496 11.1741 88.0592 11.1741ZM88.0592 13.2219C90.7389 13.2219 92.9113 11.0215 92.9113 8.30725C92.9113 5.59296 90.7389 3.3926 88.0592 3.3926C85.3794 3.3926 83.2071 5.59296 83.2071 8.30725C83.2071 11.0215 85.3794 13.2219 88.0592 13.2219Z" fill="#2EA6BC"/>
<path d="M79.9442 3.3926H81.9659V13.2219H79.9442V3.3926Z" fill="#2EA6BC"/>
<path fill-rule="evenodd" clip-rule="evenodd" d="M77.1138 11.1741C78.677 11.1741 79.9442 9.89058 79.9442 8.30725C79.9442 6.72391 78.677 5.44037 77.1138 5.44037C75.5506 5.44037 74.2834 6.72391 74.2834 8.30725C74.2834 9.89058 75.5506 11.1741 77.1138 11.1741ZM77.1138 13.2219C79.7936 13.2219 81.9659 11.0215 81.9659 8.30725C81.9659 5.59296 79.7936 3.3926 77.1138 3.3926C74.4341 3.3926 72.2617 5.59296 72.2617 8.30725C72.2617 11.0215 74.4341 13.2219 77.1138 13.2219Z" fill="#2EA6BC"/>
<path d="M74.2866 13.2219C74.3569 14.7418 75.5958 15.9522 77.1138 15.9522C78.6318 15.9522 79.8707 14.7418 79.9411 13.2219H81.9641C81.8927 15.8731 79.7485 18 77.1138 18C74.4791 18 72.3349 15.8731 72.2636 13.2219H74.2866Z" fill="#2EA6BC"/>
<path d="M100.726 3.26558H102.75L98.8285 13.1732H96.8043L100.726 3.26558Z" fill="#2EA6BC"/>
<path d="M92.8826 3.26558H94.9067L98.8285 13.1732H96.8043L92.8826 3.26558Z" fill="#2EA6BC"/>
</svg>
