<svg width="103" height="18" viewBox="0 0 137 24" fill="none" xmlns="http://www.w3.org/2000/svg">
<path d="M0 16.8338H2.99677V4.20845H0V16.8338Z" fill="#1F1F1F"/>
<path d="M4.91279 16.8338H7.90956V9.15667C7.90956 7.60316 8.95263 6.55104 10.2441 6.55104C11.5106 6.55104 12.3799 7.39767 12.3799 8.69637V16.8338H15.3187V8.9594C15.3187 7.5374 16.1714 6.55104 17.6201 6.55104C18.8287 6.55104 19.789 7.25793 19.789 8.81966V16.8338H22.7941V8.35936C22.7941 5.54003 21.1549 4.04406 18.8204 4.04406C16.9744 4.04406 15.567 4.94822 15.0041 6.35377H14.8717C14.3832 4.92356 13.1498 4.04406 11.4361 4.04406C9.7308 4.04406 8.45593 4.91534 7.92612 6.35377H7.77711V4.20845H4.91279V16.8338Z" fill="#1F1F1F"/>
<path d="M60.5471 11.5239C60.5471 13.4473 59.1646 14.4008 57.8401 14.4008C56.3996 14.4008 55.4393 13.3898 55.4393 11.787V4.20845H52.4426V12.2473C52.4426 15.2803 54.181 16.9982 56.6811 16.9982C58.5851 16.9982 59.9262 16.0036 60.5057 14.5898H60.6382V16.8338H63.5439V4.20845H60.5471V11.5239Z" fill="#1F1F1F"/>
<path d="M68.4566 0H65.4599V16.8338H68.4566V0Z" fill="#1F1F1F"/>
<path d="M80.4226 7.54562C80.0087 5.40852 78.2868 4.04406 75.3066 4.04406C72.2436 4.04406 70.1574 5.54003 70.1657 7.87441C70.1574 9.71561 71.2998 10.9321 73.742 11.4335L75.9109 11.8856C77.0782 12.1404 77.6245 12.6089 77.6245 13.324C77.6245 14.1871 76.6808 14.8364 75.2569 14.8364C73.8827 14.8364 72.9886 14.2446 72.732 13.1103L69.8097 13.3898C70.1823 15.7077 72.1442 17.0804 75.2652 17.0804C78.4441 17.0804 80.6875 15.4447 80.6958 13.0528C80.6875 11.2527 79.5203 10.1512 77.1195 9.63341L74.9506 9.17311C73.6592 8.88542 73.1459 8.44156 73.1542 7.71001C73.1459 6.85517 74.0979 6.26336 75.348 6.26336C76.7305 6.26336 77.459 7.01135 77.6907 7.84153L80.4226 7.54562Z" fill="#1F1F1F"/>
<path fill-rule="evenodd" clip-rule="evenodd" d="M88.3094 14.467C90.4361 14.467 92.1601 12.7552 92.1601 10.6436C92.1601 8.53202 90.4361 6.82024 88.3094 6.82024C86.1827 6.82024 84.4587 8.53202 84.4587 10.6436C84.4587 12.7552 86.1827 14.467 88.3094 14.467ZM88.3094 17.1979C91.9551 17.1979 94.9106 14.2635 94.9106 10.6436C94.9106 7.02374 91.9551 4.08927 88.3094 4.08927C84.6637 4.08927 81.7082 7.02374 81.7082 10.6436C81.7082 14.2635 84.6637 17.1979 88.3094 17.1979Z" fill="#1F1F1F"/>
<path d="M27.3502 4.16867H24.6333V21.0246H27.3502V4.16867Z" fill="#1F1F1F"/>
<path d="M48.1444 10.6935C48.1444 12.7956 46.4415 14.4997 44.3407 14.4997V17.2184C47.942 17.2184 50.8613 14.2971 50.8613 10.6935C50.8613 7.08995 47.942 4.16867 44.3407 4.16867V6.88736C46.4415 6.88736 48.1444 8.59144 48.1444 10.6935Z" fill="#1F1F1F"/>
<path d="M41.6238 10.6935C41.6238 12.7956 39.9209 14.4997 37.8202 14.4997V17.2184C41.4214 17.2184 44.3407 14.2971 44.3407 10.6935C44.3407 7.08995 41.4214 4.16867 37.8202 4.16867V6.88736C39.9209 6.88736 41.6238 8.59144 41.6238 10.6935Z" fill="#1F1F1F"/>
<path d="M34.9575 10.6935C34.9575 12.7956 33.2546 14.4997 31.1538 14.4997V17.2184C34.7551 17.2184 37.6744 14.2971 37.6744 10.6935C37.6744 7.08995 34.7551 4.16867 31.1538 4.16867V6.88736C33.2546 6.88736 34.9575 8.59144 34.9575 10.6935Z" fill="#1F1F1F"/>
<path d="M27.3502 10.6935C27.3502 12.7956 29.0531 14.4997 31.1538 14.4997V17.2184C27.5526 17.2184 24.6333 14.2971 24.6333 10.6935C24.6333 7.08995 27.5526 4.16867 31.1538 4.16867V6.88736C29.0531 6.88736 27.3502 8.59144 27.3502 10.6935Z" fill="#1F1F1F"/>
<path fill-rule="evenodd" clip-rule="evenodd" d="M117.412 14.8988C119.496 14.8988 121.186 13.1874 121.186 11.0763C121.186 8.96521 119.496 7.25381 117.412 7.25381C115.328 7.25381 113.638 8.96521 113.638 11.0763C113.638 13.1874 115.328 14.8988 117.412 14.8988ZM117.412 17.6292C120.985 17.6292 123.881 14.6954 123.881 11.0763C123.881 7.45727 120.985 4.52346 117.412 4.52346C113.839 4.52346 110.942 7.45727 110.942 11.0763C110.942 14.6954 113.839 17.6292 117.412 17.6292Z" fill="#2EA6BC"/>
<path d="M106.592 4.52346H109.288V17.6292H106.592V4.52346Z" fill="#2EA6BC"/>
<path fill-rule="evenodd" clip-rule="evenodd" d="M102.818 14.8988C104.902 14.8988 106.592 13.1874 106.592 11.0763C106.592 8.96521 104.902 7.25381 102.818 7.25381C100.734 7.25381 99.0442 8.96521 99.0442 11.0763C99.0442 13.1874 100.734 14.8988 102.818 14.8988ZM102.818 17.6292C106.391 17.6292 109.288 14.6954 109.288 11.0763C109.288 7.45727 106.391 4.52346 102.818 4.52346C99.2451 4.52346 96.3486 7.45727 96.3486 11.0763C96.3486 14.6954 99.2451 17.6292 102.818 17.6292Z" fill="#2EA6BC"/>
<path d="M99.0484 17.6292C99.1422 19.6558 100.794 21.2697 102.818 21.2697C104.842 21.2697 106.494 19.6558 106.588 17.6292H109.285C109.19 21.1641 106.331 24 102.818 24C99.3052 24 96.4463 21.1641 96.3511 17.6292H99.0484Z" fill="#2EA6BC"/>
<path d="M134.301 4.3541H137L131.771 17.5643H129.072L134.301 4.3541Z" fill="#2EA6BC"/>
<path d="M123.843 4.3541H126.542L131.771 17.5643H129.072L123.843 4.3541Z" fill="#2EA6BC"/>
</svg>
