<svg width="159" height="32" viewBox="0 0 159 32" fill="none" xmlns="http://www.w3.org/2000/svg">
<path d="M19.4639 26.707C22.0447 26.707 24.5198 25.6817 26.3447 23.8568C28.1696 22.0319 29.1949 19.5567 29.1949 16.9759C29.1949 14.3951 28.1696 11.92 26.3447 10.095C24.5198 8.27013 22.0447 7.24487 19.4639 7.24487V12.0508C20.7701 12.0508 22.0228 12.5697 22.9465 13.4933C23.8701 14.417 24.3891 15.6697 24.3891 16.9759C24.3891 18.2822 23.8701 19.5348 22.9465 20.4585C22.0228 21.3822 20.7701 21.9011 19.4639 21.9011V26.707Z" fill="#2EB380"/>
<path d="M29.1963 26.707C31.7771 26.707 34.2522 25.6817 36.0771 23.8568C37.902 22.0319 38.9273 19.5567 38.9273 16.9759C38.9273 14.3951 37.902 11.92 36.0771 10.095C34.2522 8.27013 31.7771 7.24487 29.1963 7.24487V12.0508C30.5025 12.0508 31.7553 12.5697 32.6789 13.4933C33.6026 14.417 34.1215 15.6697 34.1215 16.9759C34.1215 18.2822 33.6026 19.5348 32.6789 20.4585C31.7553 21.3822 30.5025 21.9011 29.1963 21.9011V26.707Z" fill="#2EB380"/>
<path d="M9.731 7.24487C7.80639 7.24487 5.92498 7.81557 4.32473 8.88483C2.72447 9.95408 1.47724 11.4739 0.740721 13.252C0.00420439 15.0301 -0.188486 16.9868 0.186987 18.8744C0.56246 20.762 1.48922 22.4959 2.85012 23.8568C4.21103 25.2177 5.94495 26.1445 7.83258 26.52C9.7202 26.8955 11.6768 26.7028 13.4549 25.9662C15.233 25.2297 16.7528 23.9825 17.822 22.3822C18.8913 20.782 19.462 18.9005 19.462 16.9759C19.462 14.3951 18.4368 11.92 16.6119 10.095C14.787 8.27013 12.3118 7.24487 9.731 7.24487ZM9.731 21.9011C8.75688 21.9011 7.80465 21.6123 6.99471 21.0711C6.18476 20.5299 5.55348 19.7607 5.18071 18.8608C4.80793 17.9608 4.71038 16.9704 4.90042 16.015C5.09046 15.0596 5.55952 14.1821 6.24833 13.4933C6.93713 12.8045 7.81475 12.3353 8.77015 12.1453C9.72554 11.9553 10.7158 12.0528 11.6158 12.4255C12.5158 12.7983 13.285 13.4296 13.8262 14.2395C14.3673 15.0495 14.6562 16.0018 14.6562 16.9759C14.6562 18.2822 14.1373 19.5348 13.2137 20.4585C12.29 21.3822 11.0372 21.9011 9.731 21.9011Z" fill="#2EB380"/>
<path d="M55.4362 32V23.5152C56.3082 24.7965 58.1569 25.8355 60.5986 25.8355C65.4821 25.8355 68.5865 22.026 68.5865 16.9697C68.5865 11.9827 65.7611 8.17316 60.7382 8.17316C58.1221 8.17316 56.1687 9.38528 55.3315 10.8398V8.55411H51.4248V32H55.4362ZM64.5403 16.9697C64.5403 20.1905 62.6567 22.2684 59.9708 22.2684C57.3198 22.2684 55.4013 20.1905 55.4013 16.9697C55.4013 13.8182 57.3198 11.7403 59.9708 11.7403C62.6915 11.7403 64.5403 13.8182 64.5403 16.9697Z" fill="#1F1F1F"/>
<path d="M81.0223 8.45022C80.8479 8.41558 80.4293 8.34632 79.941 8.34632C77.7086 8.34632 75.825 9.41991 75.0227 11.2554V8.55411H71.0811V25.4199H75.1273V17.3853C75.1273 14.2338 76.5575 12.4329 79.6968 12.4329C80.1154 12.4329 80.5689 12.4675 81.0223 12.5368V8.45022Z" fill="#1F1F1F"/>
<path d="M85.6599 15.1342C85.7995 13.3333 87.2645 11.3939 89.8108 11.3939C92.6014 11.3939 93.9269 13.1602 93.9966 15.1342H85.6599ZM94.4501 19.5325C93.892 21.1948 92.6362 22.4762 90.1945 22.4762C87.6831 22.4762 85.6599 20.6407 85.5553 18.0779H97.9731C98.008 18.0087 98.0778 17.4545 98.0778 16.7965C98.0778 11.4632 95.0082 8.03463 89.776 8.03463C85.4855 8.03463 81.509 11.5671 81.509 16.9004C81.509 22.6147 85.5902 25.9394 90.1945 25.9394C94.2757 25.9394 96.9615 23.5498 97.8685 20.6061L94.4501 19.5325Z" fill="#1F1F1F"/>
<path d="M115.556 8.55411H111.301L106.906 20.6061L102.406 8.55411H97.9412L104.848 25.4199H108.894L115.556 8.55411Z" fill="#1F1F1F"/>
<path d="M121.151 25.4199V8.55411H117.14V25.4199H121.151ZM116.512 2.63203C116.512 4.08658 117.698 5.22944 119.128 5.22944C120.593 5.22944 121.779 4.08658 121.779 2.63203C121.779 1.17749 120.593 0 119.128 0C117.698 0 116.512 1.17749 116.512 2.63203Z" fill="#1F1F1F"/>
<path d="M129.022 15.6883C129.022 13.4719 130.243 11.7056 132.545 11.7056C135.091 11.7056 136.033 13.368 136.033 15.4459V25.4199H140.079V14.7532C140.079 11.0476 138.091 8.06926 133.94 8.06926C132.057 8.06926 130.034 8.8658 128.917 10.8052V8.55411H124.976V25.4199H129.022V15.6883Z" fill="#1F1F1F"/>
<path d="M146.436 15.1342C146.575 13.3333 148.04 11.3939 150.586 11.3939C153.377 11.3939 154.702 13.1602 154.772 15.1342H146.436ZM155.226 19.5325C154.668 21.1948 153.412 22.4762 150.97 22.4762C148.459 22.4762 146.436 20.6407 146.331 18.0779H158.749C158.784 18.0087 158.853 17.4545 158.853 16.7965C158.853 11.4632 155.784 8.03463 150.552 8.03463C146.261 8.03463 142.285 11.5671 142.285 16.9004C142.285 22.6147 146.366 25.9394 150.97 25.9394C155.051 25.9394 157.737 23.5498 158.644 20.6061L155.226 19.5325Z" fill="#1F1F1F"/>
</svg>
